<svg width="18" height="14" viewBox="0 0 18 14" fill="none" xmlns="http://www.w3.org/2000/svg">
<path d="M6.14286 0.855469C5.30086 0.855469 4.52945 1.28674 4.13002 1.98103C3.97459 2.25103 3.79112 2.69153 3.69141 2.98382C3.59998 3.2341 2.20317 6.35979 1.34431 8.27065L1.34821 8.27232C1.12701 8.71093 1 9.19776 1 9.71261C1 11.6032 2.66629 13.1412 4.71429 13.1412C6.76229 13.1412 8.42857 11.6032 8.42857 9.71261V8.66295C8.58211 8.61518 8.77996 8.56975 9 8.56975C9.22081 8.56975 9.4181 8.61519 9.57143 8.66295V9.71261C9.57143 11.6032 11.2377 13.1412 13.2857 13.1412C15.3337 13.1412 17 11.6032 17 9.71261C17 9.19776 16.873 8.71093 16.6518 8.27232L16.6557 8.27065C15.7968 6.3595 14.4003 3.23458 14.3103 2.98772C14.2091 2.69201 14.0254 2.25158 13.87 1.98158C13.4705 1.28701 12.6991 0.855469 11.8571 0.855469C10.6272 0.855469 9.62363 1.77158 9.57589 2.91406C9.40106 2.87961 9.20798 2.85547 9 2.85547C8.79202 2.85547 8.59894 2.87961 8.42411 2.91406C8.37637 1.77158 7.3728 0.855469 6.14286 0.855469ZM6.14286 1.99833C6.77314 1.99833 7.28571 2.4469 7.28571 2.99833V7.24442C6.61766 6.65119 5.71225 6.28404 4.71429 6.28404C4.2442 6.28404 3.79603 6.36846 3.3817 6.51618C4.03396 5.05743 4.70732 3.54443 4.77121 3.3577C4.86521 3.08256 5.01938 2.72848 5.12109 2.55134C5.31709 2.21048 5.70857 1.99833 6.14286 1.99833ZM11.8571 1.99833C12.2914 1.99833 12.6829 2.2102 12.8789 2.55134C12.9809 2.72848 13.1345 3.08283 13.2288 3.35826C13.2927 3.54478 13.9656 5.05762 14.6177 6.51618C14.2036 6.36857 13.7556 6.28404 13.2857 6.28404C12.2878 6.28404 11.3823 6.65119 10.7143 7.24442V2.99833C10.7143 2.4469 11.2269 1.99833 11.8571 1.99833ZM9 3.99833C9.22081 3.99833 9.4181 4.04376 9.57143 4.09152V5.19866C9.3978 5.16471 9.20613 5.14118 9 5.14118C8.79387 5.14118 8.6022 5.16471 8.42857 5.19866V4.09152C8.58211 4.04375 8.77996 3.99833 9 3.99833ZM9 6.28404C9.22081 6.28404 9.4181 6.32948 9.57143 6.37723V7.48437C9.3978 7.45042 9.20613 7.4269 9 7.4269C8.79387 7.4269 8.6022 7.45042 8.42857 7.48437V6.37723C8.58211 6.32946 8.77996 6.28404 9 6.28404ZM4.71429 7.4269C6.13229 7.4269 7.28571 8.45233 7.28571 9.71261C7.28571 10.9729 6.13229 11.9983 4.71429 11.9983C3.29629 11.9983 2.14286 10.9729 2.14286 9.71261C2.14286 8.45233 3.29629 7.4269 4.71429 7.4269ZM13.2857 7.4269C14.7037 7.4269 15.8571 8.45233 15.8571 9.71261C15.8571 10.9729 14.7037 11.9983 13.2857 11.9983C11.8677 11.9983 10.7143 10.9729 10.7143 9.71261C10.7143 8.45233 11.8677 7.4269 13.2857 7.4269Z" fill="#775FD5" stroke="#775FD5" stroke-width="0.25"/>
</svg>
