<svg width="14" height="18" viewBox="0 0 14 18" fill="none" xmlns="http://www.w3.org/2000/svg">
<path fill-rule="evenodd" clip-rule="evenodd" d="M11.3721 5.85938H2.62791C2.14521 5.85938 1.75391 6.25068 1.75391 6.73337V13.7285C1.75391 15.1772 2.92828 16.3516 4.37695 16.3516H9.62305C10.3187 16.3516 10.9859 16.0752 11.4778 15.5833C11.9697 15.0914 12.2461 14.4242 12.2461 13.7285V6.73337C12.2461 6.25068 11.8548 5.85938 11.3721 5.85938Z" stroke="url(#paint0_linear_3263_61101)" stroke-width="1.7" stroke-linecap="round" stroke-linejoin="round"/>
<path d="M6.09727 9.3582C6.09727 8.88876 5.71671 8.5082 5.24727 8.5082C4.77782 8.5082 4.39727 8.88876 4.39727 9.3582H6.09727ZM4.39727 12.8552C4.39727 13.3247 4.77782 13.7052 5.24727 13.7052C5.71671 13.7052 6.09727 13.3247 6.09727 12.8552H4.39727ZM9.60117 9.3582C9.60117 8.88876 9.22061 8.5082 8.75117 8.5082C8.28173 8.5082 7.90117 8.88876 7.90117 9.3582H9.60117ZM7.90117 12.8552C7.90117 13.3247 8.28173 13.7052 8.75117 13.7052C9.22061 13.7052 9.60117 13.3247 9.60117 12.8552H7.90117ZM8.8447 2.51406C9.31414 2.51406 9.6947 2.1335 9.6947 1.66406C9.6947 1.19462 9.31414 0.814062 8.8447 0.814062V2.51406ZM5.34766 0.814062C4.87821 0.814062 4.49766 1.19462 4.49766 1.66406C4.49766 2.1335 4.87821 2.51406 5.34766 2.51406V0.814062ZM12.2461 4.6127C12.7155 4.6127 13.0961 4.23214 13.0961 3.7627C13.0961 3.29325 12.7155 2.9127 12.2461 2.9127V4.6127ZM1.75391 2.9127C1.28446 2.9127 0.903906 3.29325 0.903906 3.7627C0.903906 4.23214 1.28446 4.6127 1.75391 4.6127V2.9127ZM4.39727 9.3582V12.8552H6.09727V9.3582H4.39727ZM7.90117 9.3582V12.8552H9.60117V9.3582H7.90117ZM8.8447 0.814062H5.34766V2.51406H8.8447V0.814062ZM12.2461 2.9127H1.75391V4.6127H12.2461V2.9127Z" fill="url(#paint1_linear_3263_61101)"/>
<defs>
<linearGradient id="paint0_linear_3263_61101" x1="1.75391" y1="11.1055" x2="12.2461" y2="11.1055" gradientUnits="userSpaceOnUse">
<stop stop-color="#EE318A"/>
<stop offset="1" stop-color="#EC6551"/>
</linearGradient>
<linearGradient id="paint1_linear_3263_61101" x1="1.75391" y1="7.25955" x2="12.2461" y2="7.25955" gradientUnits="userSpaceOnUse">
<stop stop-color="#EE318A"/>
<stop offset="1" stop-color="#EC6551"/>
</linearGradient>
</defs>
</svg>
