<svg width="14" height="16" viewBox="0 0 14 16" fill="none" xmlns="http://www.w3.org/2000/svg">
<path d="M7.97189 4.50143C8.31729 4.07047 8.24793 3.44112 7.81698 3.09572C7.38602 2.75033 6.75667 2.81969 6.41127 3.25064L7.97189 4.50143ZM1.78508 10.6218L2.54246 11.2748C2.55027 11.2657 2.55791 11.2565 2.56539 11.2472L1.78508 10.6218ZM1.62833 11.0049L0.630453 10.9399C0.630044 10.9461 0.629695 10.9524 0.629404 10.9587L1.62833 11.0049ZM1.5 13.776L0.501071 13.7298C0.498771 13.7794 0.500177 13.8292 0.505277 13.8786L1.5 13.776ZM2.22142 14.4058L2.25411 15.4052C2.3208 15.4031 2.3871 15.3942 2.45203 15.3788L2.22142 14.4058ZM4.97142 13.754L5.20203 14.7271C5.20722 14.7258 5.21241 14.7246 5.21758 14.7233L4.97142 13.754ZM5.32433 13.5304L6.09581 14.1668L6.10447 14.156L5.32433 13.5304ZM11.6411 7.25164C11.9867 6.82078 11.9175 6.1914 11.4866 5.84589C11.0557 5.50038 10.4264 5.56957 10.0809 6.00043L11.6411 7.25164ZM6.41521 3.25038C6.06967 3.68122 6.13882 4.31059 6.56966 4.65613C7.00049 5.00167 7.62987 4.93253 7.97541 4.50169L6.41521 3.25038ZM8.65098 2.06103L9.43108 2.68669C9.44422 2.6703 9.45685 2.6535 9.46893 2.63632L8.65098 2.06103ZM10.1442 1.7677L10.784 0.999113C10.7521 0.972605 10.7187 0.948103 10.6838 0.925746L10.1442 1.7677ZM12.1948 3.47453L12.9026 2.76808C12.8809 2.74633 12.8582 2.7256 12.8346 2.70595L12.1948 3.47453ZM12.5037 4.227L13.5037 4.2325V4.2325L12.5037 4.227ZM12.1866 4.97603L11.4866 4.26184C11.4583 4.28963 11.4316 4.31907 11.4068 4.35002L12.1866 4.97603ZM10.0822 6.00002C9.73643 6.4307 9.80529 7.06011 10.236 7.40584C10.6666 7.75158 11.2961 7.68273 11.6418 7.25205L10.0822 6.00002ZM8.18427 3.72778C8.10242 3.18159 7.5933 2.80517 7.04711 2.88702C6.50093 2.96887 6.12451 3.47799 6.20635 4.02417L8.18427 3.72778ZM10.9966 7.61687C11.5439 7.54251 11.9272 7.0386 11.8529 6.49134C11.7785 5.94408 11.2746 5.56072 10.7273 5.63508L10.9966 7.61687ZM6.41127 3.25064L1.00477 9.99639L2.56539 11.2472L7.97189 4.50143L6.41127 3.25064ZM1.02771 9.9688C0.793275 10.2407 0.653817 10.5816 0.630453 10.9399L2.62621 11.07C2.62129 11.1456 2.59188 11.2174 2.54246 11.2748L1.02771 9.9688ZM0.629404 10.9587L0.501071 13.7298L2.49893 13.8223L2.62726 11.0512L0.629404 10.9587ZM0.505277 13.8786C0.596983 14.7677 1.36076 15.4345 2.25411 15.4052L2.18872 13.4063C2.34504 13.4012 2.47868 13.5179 2.49472 13.6734L0.505277 13.8786ZM2.45203 15.3788L5.20203 14.7271L4.7408 12.781L1.99081 13.4327L2.45203 15.3788ZM5.21758 14.7233C5.562 14.6358 5.8696 14.4408 6.09573 14.1667L4.55293 12.894C4.59731 12.8402 4.65767 12.802 4.72526 12.7848L5.21758 14.7233ZM6.10447 14.156L11.6411 7.25164L10.0809 6.00043L4.54419 12.9048L6.10447 14.156ZM7.97541 4.50169L9.43108 2.68669L7.87088 1.43538L6.41521 3.25038L7.97541 4.50169ZM9.46893 2.63632C9.49974 2.59252 9.55959 2.58076 9.60468 2.60966L10.6838 0.925746C9.73688 0.318946 8.48002 0.565842 7.83303 1.48575L9.46893 2.63632ZM9.50448 2.53629L11.5551 4.24312L12.8346 2.70595L10.784 0.999113L9.50448 2.53629ZM11.4871 4.18099C11.4978 4.19173 11.5038 4.20632 11.5037 4.22151L13.5037 4.2325C13.5067 3.68372 13.2903 3.15649 12.9026 2.76808L11.4871 4.18099ZM11.5037 4.22151C11.5036 4.23669 11.4975 4.25122 11.4866 4.26184L12.8865 5.69022C13.2785 5.3061 13.5006 4.78128 13.5037 4.2325L11.5037 4.22151ZM11.4068 4.35002L10.0822 6.00002L11.6418 7.25205L12.9664 5.60205L11.4068 4.35002ZM6.20635 4.02417C6.55192 6.33023 8.68605 7.93082 10.9966 7.61687L10.7273 5.63508C9.5007 5.80175 8.36773 4.95202 8.18427 3.72778L6.20635 4.02417Z" fill="url(#paint0_linear_3263_44395)"/>
<defs>
<linearGradient id="paint0_linear_3263_44395" x1="1.5" y1="7.99996" x2="12.5037" y2="7.99996" gradientUnits="userSpaceOnUse">
<stop stop-color="#EE318A"/>
<stop offset="1" stop-color="#EC6551"/>
</linearGradient>
</defs>
</svg>
