<svg width="18" height="12" viewBox="0 0 18 12" fill="none" xmlns="http://www.w3.org/2000/svg">
<path d="M16.8962 5.6113C15.2715 2.79827 12.246 1.05078 9 1.05078C5.75401 1.05078 2.72853 2.79827 1.10377 5.6113C0.96541 5.85072 0.96541 6.14608 1.10377 6.3855C2.72853 9.19853 5.75401 10.946 9 10.946C12.246 10.946 15.2715 9.19853 16.8962 6.3855C17.0346 6.14608 17.0346 5.85072 16.8962 5.6113ZM9 9.39762C6.45764 9.39762 4.07784 8.10603 2.68417 5.9984C4.07784 3.89077 6.45764 2.59918 9 2.59918C11.5424 2.59918 13.9222 3.89077 15.3158 5.9984C13.9222 8.10603 11.5424 9.39762 9 9.39762Z" fill="url(#paint0_linear_4240_109422)"/>
<path d="M9 3.13195C7.41934 3.13195 6.13355 4.41774 6.13355 5.9984C6.13355 7.57906 7.41934 8.86486 9 8.86486C10.5807 8.86486 11.8665 7.57906 11.8665 5.9984C11.8665 4.41774 10.5807 3.13195 9 3.13195ZM9 7.31646C8.27318 7.31646 7.68195 6.72522 7.68195 5.9984C7.68195 5.27158 8.27318 4.68035 9 4.68035C9.72682 4.68035 10.3181 5.27158 10.3181 5.9984C10.3181 6.72522 9.72682 7.31646 9 7.31646Z" fill="url(#paint1_linear_4240_109422)"/>
<path d="M16.8962 5.6113C15.2715 2.79827 12.246 1.05078 9 1.05078C5.75401 1.05078 2.72853 2.79827 1.10377 5.6113C0.96541 5.85072 0.96541 6.14608 1.10377 6.3855C2.72853 9.19853 5.75401 10.946 9 10.946C12.246 10.946 15.2715 9.19853 16.8962 6.3855C17.0346 6.14608 17.0346 5.85072 16.8962 5.6113ZM9 9.39762C6.45764 9.39762 4.07784 8.10603 2.68417 5.9984C4.07784 3.89077 6.45764 2.59918 9 2.59918C11.5424 2.59918 13.9222 3.89077 15.3158 5.9984C13.9222 8.10603 11.5424 9.39762 9 9.39762Z" stroke="url(#paint2_linear_4240_109422)" stroke-width="0.25"/>
<path d="M9 3.13195C7.41934 3.13195 6.13355 4.41774 6.13355 5.9984C6.13355 7.57906 7.41934 8.86486 9 8.86486C10.5807 8.86486 11.8665 7.57906 11.8665 5.9984C11.8665 4.41774 10.5807 3.13195 9 3.13195ZM9 7.31646C8.27318 7.31646 7.68195 6.72522 7.68195 5.9984C7.68195 5.27158 8.27318 4.68035 9 4.68035C9.72682 4.68035 10.3181 5.27158 10.3181 5.9984C10.3181 6.72522 9.72682 7.31646 9 7.31646Z" stroke="url(#paint3_linear_4240_109422)" stroke-width="0.25"/>
<defs>
<linearGradient id="paint0_linear_4240_109422" x1="1" y1="5.9984" x2="17" y2="5.9984" gradientUnits="userSpaceOnUse">
<stop stop-color="#EE318A"/>
<stop offset="1" stop-color="#EC6551"/>
</linearGradient>
<linearGradient id="paint1_linear_4240_109422" x1="1" y1="5.9984" x2="17" y2="5.9984" gradientUnits="userSpaceOnUse">
<stop stop-color="#EE318A"/>
<stop offset="1" stop-color="#EC6551"/>
</linearGradient>
<linearGradient id="paint2_linear_4240_109422" x1="1" y1="5.9984" x2="17" y2="5.9984" gradientUnits="userSpaceOnUse">
<stop stop-color="#EE318A"/>
<stop offset="1" stop-color="#EC6551"/>
</linearGradient>
<linearGradient id="paint3_linear_4240_109422" x1="1" y1="5.9984" x2="17" y2="5.9984" gradientUnits="userSpaceOnUse">
<stop stop-color="#EE318A"/>
<stop offset="1" stop-color="#EC6551"/>
</linearGradient>
</defs>
</svg>
