<svg width="170" height="50" viewBox="0 0 170 50" fill="none" xmlns="http://www.w3.org/2000/svg">
<g clipPath="url(#clip0_1023_29500)">
<path d="M47.9048 25.0903C47.9048 26.9419 46.7816 28.0499 44.8684 28.0499C42.9604 28.0499 41.832 26.9419 41.832 25.0903C41.832 23.2387 42.9554 22.1307 44.8684 22.1307C46.7816 22.1307 47.9048 23.2387 47.9048 25.0903ZM47.2842 25.0903C47.2842 23.5925 46.3816 22.7053 44.8736 22.7053C43.3656 22.7053 42.4576 23.5925 42.4576 25.0903C42.4576 26.5881 43.3606 27.4753 44.8736 27.4753C46.3816 27.4753 47.2842 26.5881 47.2842 25.0903ZM45.73 25.7569L46.2174 26.5265H45.5658L44.8992 25.4289H44.2784V26.5265H43.6732V23.5823H45.0222C45.7198 23.5823 46.1304 23.9209 46.1304 24.5159C46.1304 25.0801 45.7146 25.4031 45.0222 25.4031V25.4339C45.33 25.4339 45.5966 25.5519 45.73 25.7569ZM44.9762 24.9723C45.3046 24.9723 45.494 24.8083 45.494 24.5261C45.494 24.2439 45.2994 24.0799 44.9762 24.0799H44.2784V24.9673H44.9762V24.9723Z" fill="white"/>
<path d="M54.5938 18.7737H56.7122V24.2083H62.6992V18.7737H64.8178V31.6873H62.6992V26.0873H56.7122V31.6873H54.5938V18.7737ZM66.616 26.9901C66.616 26.0197 66.8064 25.1723 67.187 24.4477C67.5802 23.7109 68.1203 23.1459 68.8082 22.7529C69.5082 22.3477 70.3064 22.1449 71.2027 22.1449C72.1117 22.1449 72.91 22.3293 73.5975 22.6977C74.2978 23.0661 74.8442 23.5879 75.2372 24.2633C75.6426 24.9387 75.8514 25.7311 75.8636 26.6399C75.8636 26.8855 75.8452 27.1373 75.8083 27.3951H68.6975V27.5057C68.7467 28.3285 69.0045 28.9795 69.4714 29.4583C69.938 29.9373 70.5582 30.1767 71.3318 30.1767C71.946 30.1767 72.4618 30.0355 72.8794 29.7531C73.2968 29.4583 73.5732 29.0469 73.7082 28.5189H75.6975C75.5259 29.4767 75.0591 30.2627 74.2978 30.8769C73.5486 31.4907 72.6091 31.7979 71.4792 31.7979C70.4967 31.7979 69.6372 31.6011 68.9001 31.2081C68.1758 30.8029 67.6105 30.2383 67.2056 29.5137C66.8124 28.7891 66.616 27.9479 66.616 26.9901ZM73.8372 25.9399C73.7512 25.2521 73.475 24.7179 73.0082 24.3371C72.5538 23.9443 71.9766 23.7477 71.2766 23.7477C70.6258 23.7477 70.0608 23.9503 69.5818 24.3557C69.1152 24.7485 68.8449 25.2767 68.7713 25.9399H73.8372ZM88.3591 22.1449C89.3901 22.1449 90.2318 22.4825 90.8824 23.1581C91.534 23.8211 91.8591 24.8897 91.8591 26.3633V31.6873H89.8695V26.3819C89.8695 25.5591 89.7036 24.9327 89.3724 24.5029C89.0408 24.0731 88.5494 23.8583 87.8988 23.8583C87.2105 23.8583 86.664 24.1039 86.2586 24.5951C85.8661 25.0739 85.6692 25.7373 85.6692 26.5845V31.6873H83.6614V26.3819C83.6614 25.5469 83.4893 24.9205 83.146 24.5029C82.8139 24.0731 82.3232 23.8583 81.672 23.8583C80.9964 23.8583 80.4557 24.1099 80.0514 24.6133C79.6582 25.1169 79.4618 25.7925 79.4618 26.6399V31.6873H77.472V22.2557H79.2038L79.4247 23.4899C80.1004 22.6055 81.0212 22.1573 82.1882 22.1449C82.8508 22.1449 83.4344 22.2859 83.9377 22.5685C84.4412 22.8511 84.8284 23.2811 85.0986 23.8583C85.43 23.3179 85.8661 22.9003 86.4065 22.6055C86.9472 22.2985 87.5975 22.1449 88.3591 22.1449ZM102.818 22.2557V31.6873H101.068L100.847 30.2503C100.516 30.7171 100.092 31.0917 99.5762 31.3741C99.06 31.6567 98.4584 31.7979 97.7708 31.7979C96.911 31.7979 96.1433 31.6075 95.4678 31.2269C94.7924 30.8337 94.2646 30.2749 93.8836 29.5503C93.5032 28.8137 93.313 27.9539 93.313 26.9715C93.313 26.0135 93.5032 25.1723 93.8836 24.4477C94.2768 23.7109 94.8111 23.1459 95.4868 22.7529C96.1623 22.3477 96.923 22.1449 97.7708 22.1449C98.4704 22.1449 99.0788 22.2801 99.5944 22.5503C100.111 22.8083 100.528 23.1705 100.847 23.6371L101.087 22.2557H102.818ZM98.1022 30.1215C98.9248 30.1215 99.5884 29.8329 100.092 29.2557C100.595 28.6785 100.847 27.9295 100.847 27.0083C100.847 26.0749 100.595 25.3135 100.092 24.7241C99.5884 24.1345 98.9248 23.8399 98.1022 23.8399C97.2794 23.8399 96.6166 24.1345 96.1125 24.7241C95.609 25.3011 95.3576 26.0503 95.3576 26.9715C95.3576 27.9049 95.609 28.6661 96.1125 29.2557C96.6166 29.8329 97.2794 30.1215 98.1022 30.1215ZM105.37 24.0057H103.731V22.2557H105.37V19.6211H107.378V22.2557H109.644V24.0057H107.378V28.9241C107.378 29.2925 107.452 29.5567 107.6 29.7163C107.747 29.8637 107.998 29.9373 108.354 29.9373H109.865V31.6873H107.949C107.053 31.6873 106.396 31.4785 105.978 31.0611C105.573 30.6435 105.37 29.9987 105.37 29.1267V24.0057ZM115.39 31.7979C114.446 31.7979 113.604 31.6011 112.867 31.2081C112.143 30.8029 111.577 30.2383 111.172 29.5137C110.78 28.7767 110.582 27.9295 110.582 26.9715C110.582 26.0257 110.78 25.1905 111.172 24.4659C111.577 23.7291 112.143 23.1583 112.867 22.7529C113.604 22.3477 114.446 22.1449 115.39 22.1449C116.336 22.1449 117.172 22.3477 117.896 22.7529C118.633 23.1583 119.198 23.7291 119.591 24.4659C119.996 25.1905 120.198 26.0257 120.198 26.9715C120.198 27.9295 119.996 28.7767 119.591 29.5137C119.198 30.2383 118.633 30.8029 117.896 31.2081C117.172 31.6011 116.336 31.7979 115.39 31.7979ZM115.39 30.1031C116.226 30.1031 116.896 29.8145 117.399 29.2373C117.914 28.6479 118.173 27.8925 118.173 26.9715C118.173 26.0503 117.914 25.3011 117.399 24.7241C116.896 24.1345 116.226 23.8399 115.39 23.8399C114.556 23.8399 113.886 24.1345 113.383 24.7241C112.879 25.3011 112.628 26.0503 112.628 26.9715C112.628 27.8925 112.879 28.6479 113.383 29.2373C113.886 29.8145 114.556 30.1031 115.39 30.1031ZM130.954 22.2557V31.3005C130.954 32.6267 130.561 33.6523 129.775 34.3769C128.989 35.1139 127.773 35.4821 126.127 35.4821C124.85 35.4821 123.812 35.1933 123.015 34.6161C122.216 34.0513 121.774 33.2471 121.689 32.2031H123.714C123.837 32.7313 124.12 33.1363 124.562 33.4187C125.004 33.7135 125.575 33.8609 126.275 33.8609C128.081 33.8609 128.983 32.9829 128.983 31.2269V30.1767C128.295 31.2083 127.27 31.7241 125.907 31.7241C125.047 31.7241 124.28 31.5337 123.604 31.1531C122.929 30.7601 122.4 30.2075 122.02 29.4953C121.639 28.7707 121.448 27.9171 121.448 26.9345C121.448 25.9891 121.639 25.1539 122.02 24.4293C122.413 23.7047 122.947 23.1459 123.622 22.7529C124.298 22.3477 125.059 22.1449 125.907 22.1449C126.619 22.1449 127.233 22.2859 127.749 22.5685C128.265 22.8511 128.682 23.2381 129.002 23.7293L129.223 22.2557H130.954ZM126.238 30.0479C127.061 30.0479 127.724 29.7653 128.228 29.2005C128.731 28.6233 128.983 27.8803 128.983 26.9715C128.983 26.0381 128.731 25.2827 128.228 24.7057C127.724 24.1161 127.061 23.8211 126.238 23.8211C125.416 23.8211 124.752 24.1101 124.249 24.6871C123.745 25.2645 123.493 26.0135 123.493 26.9345C123.493 27.8557 123.745 28.6049 124.249 29.1819C124.752 29.7591 125.416 30.0479 126.238 30.0479ZM132.548 26.9901C132.548 26.0197 132.739 25.1723 133.12 24.4477C133.512 23.7109 134.053 23.1459 134.74 22.7529C135.441 22.3477 136.239 22.1449 137.135 22.1449C138.044 22.1449 138.842 22.3293 139.53 22.6977C140.23 23.0661 140.776 23.5879 141.17 24.2633C141.575 24.9387 141.784 25.7311 141.796 26.6399C141.796 26.8855 141.777 27.1373 141.741 27.3951H134.63V27.5057C134.679 28.3285 134.937 28.9795 135.404 29.4583C135.87 29.9373 136.491 30.1767 137.264 30.1767C137.879 30.1767 138.394 30.0355 138.812 29.7531C139.229 29.4583 139.505 29.0469 139.64 28.5189H141.63C141.458 29.4767 140.991 30.2627 140.23 30.8769C139.481 31.4907 138.541 31.7979 137.411 31.7979C136.429 31.7979 135.57 31.6011 134.832 31.2081C134.108 30.8029 133.543 30.2383 133.138 29.5137C132.745 28.7891 132.548 27.9479 132.548 26.9901ZM139.769 25.9399C139.683 25.2521 139.407 24.7179 138.941 24.3371C138.486 23.9443 137.909 23.7477 137.209 23.7477C136.558 23.7477 135.993 23.9503 135.514 24.3557C135.047 24.7485 134.777 25.2767 134.704 25.9399H139.769ZM148.379 22.1449C149.496 22.1449 150.404 22.4889 151.105 23.1767C151.816 23.8643 152.173 24.9697 152.173 26.4925V31.6873H150.165V26.6031C150.165 25.7067 149.975 25.0249 149.594 24.5581C149.213 24.0915 148.655 23.8583 147.917 23.8583C147.131 23.8583 146.511 24.1345 146.057 24.6871C145.615 25.2275 145.394 25.9767 145.394 26.9345V31.6873H143.404V22.2557H145.136L145.357 23.4899C146.07 22.5933 147.076 22.1449 148.379 22.1449ZM154.977 18.4789C155.321 18.4789 155.609 18.5957 155.843 18.8289C156.076 19.0501 156.193 19.3325 156.193 19.6763C156.193 20.0203 156.076 20.3091 155.843 20.5423C155.609 20.7635 155.321 20.8737 154.977 20.8737C154.633 20.8737 154.344 20.7635 154.111 20.5423C153.878 20.3091 153.761 20.0203 153.761 19.6763C153.761 19.3325 153.878 19.0501 154.111 18.8289C154.344 18.5957 154.633 18.4789 154.977 18.4789ZM153.982 22.2557H155.972V31.6873H153.982V22.2557ZM160.593 26.8607L157.259 22.2557H159.58L161.846 25.4425L164.148 22.2557H166.322L162.969 26.8607L166.525 31.6873H164.204L161.717 28.2607L159.211 31.6873H157.056L160.593 26.8607Z" fill="white"/>
<path d="M26.1196 22.4658C26.7928 21.8141 27.7246 21.3456 28.8825 21.0762L31.1283 20.5161C31.349 20.4624 31.5052 20.2631 31.5052 20.0369L31.6562 -36.8036H38.1729L38.022 15.1198C38.022 18.2219 35.6737 20.7692 32.6686 21.1302C32.4584 21.157 32.2753 21.3024 32.2323 21.5071C31.9954 22.6058 31.866 23.7583 31.866 24.9593C31.866 26.0849 31.9954 27.1782 32.2323 28.2769C32.2753 28.4871 32.4584 28.6322 32.6686 28.6593C35.679 29.0201 38.022 31.5676 38.022 34.6695L38.1118 64.7631H31.5951L31.5052 29.7794C31.5052 29.548 31.3435 29.3433 31.1121 29.295L28.8985 28.821C27.7299 28.5677 26.7981 28.1152 26.1248 27.4745C25.4194 26.8014 25.0587 25.9555 25.0587 24.9593C25.0532 23.9845 25.414 23.1443 26.1196 22.4658Z" fill="white"/>
<path d="M14.4742 22.5055C13.8009 21.8539 12.8691 21.3853 11.7112 21.1159L9.46547 20.5558C9.24476 20.5021 9.08852 20.303 9.08852 20.0768L8.95433 -22.4139H2.4376L2.5718 15.1597C2.5718 18.2618 4.92002 20.8089 7.92512 21.1699C8.13532 21.1968 8.31845 21.3421 8.3615 21.5468C8.59838 22.6455 8.72774 23.798 8.72774 24.999C8.72774 26.1246 8.59838 27.2179 8.3615 28.3166C8.31845 28.5268 8.13532 28.6719 7.92512 28.699C4.91477 29.0598 2.5718 31.6075 2.5718 34.7094L2.48486 64.6529H9.00158L9.08852 29.8191C9.08852 29.5877 9.25022 29.383 9.48164 29.3347L11.6952 28.8607C12.8639 28.6074 13.7957 28.1549 14.4689 27.5142C15.1743 26.8411 15.5351 25.9953 15.5351 24.999C15.5406 24.0242 15.1798 23.184 14.4742 22.5055Z" fill="white"/>
</g>
<defs>
<clipPath id="clip0_1023_29500">
<rect width="170" height="50" fill="white"/>
</clipPath>
</defs>
</svg>
