<svg width="222" height="66" viewBox="0 0 222 66" fill="none" xmlns="http://www.w3.org/2000/svg">
<g clip-path="url(#clip0_1803_102449)">
<path d="M62.5593 33.1176C62.5593 35.5617 61.0925 37.0243 58.5941 37.0243C56.1025 37.0243 54.6289 35.5617 54.6289 33.1176C54.6289 30.6735 56.0959 29.2109 58.5941 29.2109C61.0925 29.2109 62.5593 30.6735 62.5593 33.1176ZM61.7488 33.1176C61.7488 31.1405 60.5701 29.9694 58.6009 29.9694C56.6316 29.9694 55.4459 31.1405 55.4459 33.1176C55.4459 35.0947 56.6251 36.2658 58.6009 36.2658C60.5701 36.2658 61.7488 35.0947 61.7488 33.1176ZM59.7192 33.9975L60.3557 35.0134H59.5048L58.6343 33.5646H57.8236V35.0134H57.0333V31.127H58.7949C59.7059 31.127 60.2421 31.574 60.2421 32.3594C60.2421 33.1041 59.6991 33.5305 58.7949 33.5305V33.5712C59.1969 33.5712 59.545 33.7269 59.7192 33.9975ZM58.7349 32.9618C59.1637 32.9618 59.411 32.7454 59.411 32.3729C59.411 32.0004 59.1569 31.7839 58.7349 31.7839H57.8236V32.9552H58.7349V32.9618Z" fill="#F54C3B"/>
<path d="M71.293 24.7798H74.0594V31.9534H81.8777V24.7798H84.6443V41.8257H81.8777V34.4337H74.0594V41.8257H71.293V24.7798ZM86.9926 35.6254C86.9926 34.3445 87.2412 33.2259 87.7382 32.2694C88.2517 31.2969 88.9571 30.5511 89.8553 30.0323C90.7694 29.4974 91.8118 29.2297 92.9824 29.2297C94.1694 29.2297 95.2118 29.4732 96.1097 29.9594C97.0241 30.4457 97.7376 31.1345 98.2508 32.026C98.7802 32.9176 99.0529 33.9635 99.0688 35.1631C99.0688 35.4873 99.0448 35.8197 98.9967 36.16H89.7109V36.306C89.7751 37.3921 90.1118 38.2514 90.7214 38.8834C91.3307 39.5157 92.1406 39.8317 93.1508 39.8317C93.9529 39.8317 94.6265 39.6453 95.1718 39.2726C95.7169 38.8834 96.0778 38.3404 96.2541 37.6434H98.8521C98.628 38.9077 98.0184 39.9452 97.0241 40.756C96.0457 41.5662 94.819 41.9717 93.3433 41.9717C92.0604 41.9717 90.9379 41.7119 89.9754 41.1932C89.0295 40.6583 88.2914 39.913 87.7625 38.9566C87.249 38.0001 86.9926 36.8897 86.9926 35.6254ZM96.4226 34.2391C96.3103 33.3312 95.9496 32.6261 95.34 32.1234C94.7466 31.605 93.9929 31.3454 93.0787 31.3454C92.2289 31.3454 91.4911 31.6129 90.8655 32.148C90.2562 32.6665 89.9034 33.3637 89.8072 34.2391H96.4226ZM115.387 29.2297C116.733 29.2297 117.832 29.6754 118.682 30.5672C119.533 31.4423 119.957 32.8529 119.957 34.798V41.8257H117.359V34.8226C117.359 33.7365 117.142 32.9096 116.71 32.3423C116.277 31.775 115.635 31.4914 114.785 31.4914C113.887 31.4914 113.173 31.8156 112.643 32.464C112.131 33.096 111.874 33.9717 111.874 35.09V41.8257H109.252V34.8226C109.252 33.7204 109.027 32.8935 108.579 32.3423C108.145 31.775 107.504 31.4914 106.654 31.4914C105.772 31.4914 105.066 31.8235 104.538 32.488C104.024 33.1528 103.768 34.0446 103.768 35.1631V41.8257H101.169V29.376H103.431L103.719 31.0051C104.602 29.8377 105.804 29.2461 107.328 29.2297C108.193 29.2297 108.955 29.4159 109.613 29.7889C110.27 30.1619 110.776 30.7295 111.129 31.4914C111.561 30.7781 112.131 30.2269 112.837 29.8377C113.543 29.4325 114.392 29.2297 115.387 29.2297ZM134.268 29.376V41.8257H131.983L131.695 39.9289C131.262 40.545 130.708 41.0395 130.035 41.4123C129.361 41.7853 128.575 41.9717 127.677 41.9717C126.554 41.9717 125.552 41.7204 124.67 41.218C123.788 40.699 123.098 39.9613 122.601 39.0049C122.104 38.0326 121.856 36.8976 121.856 35.6009C121.856 34.3363 122.104 33.2259 122.601 32.2694C123.114 31.2969 123.812 30.5511 124.694 30.0323C125.577 29.4974 126.57 29.2297 127.677 29.2297C128.591 29.2297 129.385 29.4082 130.058 29.7649C130.733 30.1054 131.278 30.5835 131.695 31.1994L132.007 29.376H134.268ZM128.11 39.7589C129.184 39.7589 130.051 39.3779 130.708 38.616C131.365 37.8541 131.695 36.8654 131.695 35.6494C131.695 34.4173 131.365 33.4123 130.708 32.6343C130.051 31.856 129.184 31.4671 128.11 31.4671C127.035 31.4671 126.17 31.856 125.512 32.6343C124.854 33.3959 124.526 34.3849 124.526 35.6009C124.526 36.8329 124.854 37.8377 125.512 38.616C126.17 39.3779 127.035 39.7589 128.11 39.7589ZM137.601 31.686H135.46V29.376H137.601V25.8983H140.223V29.376H143.183V31.686H140.223V38.1783C140.223 38.6646 140.319 39.0133 140.512 39.224C140.705 39.4186 141.033 39.5157 141.498 39.5157H143.471V41.8257H140.969C139.799 41.8257 138.94 41.5501 138.395 40.9991C137.866 40.4479 137.601 39.5968 137.601 38.4457V31.686ZM150.686 41.9717C149.452 41.9717 148.353 41.7119 147.391 41.1932C146.445 40.6583 145.707 39.913 145.177 38.9566C144.665 37.9837 144.408 36.8654 144.408 35.6009C144.408 34.3524 144.665 33.2499 145.177 32.2935C145.707 31.3209 146.445 30.5674 147.391 30.0323C148.353 29.4974 149.452 29.2297 150.686 29.2297C151.921 29.2297 153.012 29.4974 153.959 30.0323C154.921 30.5674 155.658 31.3209 156.171 32.2935C156.701 33.2499 156.965 34.3524 156.965 35.6009C156.965 36.8654 156.701 37.9837 156.171 38.9566C155.658 39.913 154.921 40.6583 153.959 41.1932C153.012 41.7119 151.921 41.9717 150.686 41.9717ZM150.686 39.7346C151.777 39.7346 152.652 39.3536 153.309 38.5917C153.982 37.8137 154.319 36.8166 154.319 35.6009C154.319 34.3849 153.982 33.3959 153.309 32.6343C152.652 31.856 151.777 31.4671 150.686 31.4671C149.596 31.4671 148.722 31.856 148.064 32.6343C147.407 33.3959 147.079 34.3849 147.079 35.6009C147.079 36.8166 147.407 37.8137 148.064 38.5917C148.722 39.3536 149.596 39.7346 150.686 39.7346ZM171.011 29.376V41.3151C171.011 43.0657 170.497 44.4195 169.471 45.376C168.445 46.3488 166.857 46.8348 164.707 46.8348C163.04 46.8348 161.684 46.4536 160.642 45.6917C159.6 44.9462 159.022 43.8846 158.911 42.5066H161.556C161.717 43.2038 162.085 43.7384 162.663 44.1112C163.241 44.5003 163.986 44.6949 164.9 44.6949C167.258 44.6949 168.436 43.5359 168.436 41.218V39.8317C167.538 41.1934 166.2 41.8743 164.419 41.8743C163.297 41.8743 162.294 41.623 161.412 41.1206C160.53 40.6018 159.84 39.8724 159.343 38.9323C158.846 37.9758 158.597 36.849 158.597 35.552C158.597 34.3041 158.846 33.2016 159.343 32.2452C159.857 31.2887 160.554 30.5511 161.436 30.0323C162.318 29.4974 163.313 29.2297 164.419 29.2297C165.349 29.2297 166.151 29.4159 166.825 29.7889C167.499 30.1619 168.044 30.6728 168.461 31.3212L168.749 29.376H171.011ZM164.852 39.6617C165.927 39.6617 166.793 39.2887 167.451 38.5431C168.108 37.7812 168.436 36.8005 168.436 35.6009C168.436 34.3688 168.108 33.3716 167.451 32.61C166.793 31.8317 165.927 31.4423 164.852 31.4423C163.778 31.4423 162.912 31.8238 162.254 32.5854C161.597 33.3476 161.267 34.3363 161.267 35.552C161.267 36.768 161.597 37.7569 162.254 38.5186C162.912 39.2805 163.778 39.6617 164.852 39.6617ZM173.092 35.6254C173.092 34.3445 173.341 33.2259 173.839 32.2694C174.351 31.2969 175.057 30.5511 175.955 30.0323C176.869 29.4974 177.911 29.2297 179.082 29.2297C180.269 29.2297 181.312 29.4732 182.21 29.9594C183.124 30.4457 183.837 31.1345 184.351 32.026C184.88 32.9176 185.153 33.9635 185.169 35.1631C185.169 35.4873 185.144 35.8197 185.097 36.16H175.811V36.306C175.875 37.3921 176.212 38.2514 176.821 38.8834C177.43 39.5157 178.241 39.8317 179.251 39.8317C180.053 39.8317 180.726 39.6453 181.272 39.2726C181.817 38.8834 182.177 38.3404 182.354 37.6434H184.952C184.727 38.9077 184.118 39.9452 183.124 40.756C182.146 41.5662 180.918 41.9717 179.443 41.9717C178.161 41.9717 177.038 41.7119 176.075 41.1932C175.129 40.6583 174.392 39.913 173.862 38.9566C173.349 38.0001 173.092 36.8897 173.092 35.6254ZM182.522 34.2391C182.41 33.3312 182.049 32.6261 181.44 32.1234C180.847 31.605 180.093 31.3454 179.179 31.3454C178.328 31.3454 177.591 31.6129 176.965 32.148C176.356 32.6665 176.003 33.3637 175.907 34.2391H182.522ZM193.765 29.2297C195.224 29.2297 196.41 29.6838 197.325 30.5917C198.254 31.4994 198.719 32.9585 198.719 34.9686V41.8257H196.098V35.1146C196.098 33.9313 195.849 33.0313 195.352 32.4152C194.855 31.7993 194.126 31.4914 193.162 31.4914C192.136 31.4914 191.326 31.856 190.733 32.5854C190.156 33.2988 189.867 34.2877 189.867 35.552V41.8257H187.269V29.376H189.53L189.819 31.0051C190.75 29.8216 192.064 29.2297 193.765 29.2297ZM202.381 24.3906C202.831 24.3906 203.207 24.5448 203.512 24.8526C203.817 25.1446 203.969 25.5174 203.969 25.9712C203.969 26.4253 203.817 26.8065 203.512 27.1143C203.207 27.4063 202.831 27.5518 202.381 27.5518C201.933 27.5518 201.556 27.4063 201.251 27.1143C200.946 26.8065 200.793 26.4253 200.793 25.9712C200.793 25.5174 200.946 25.1446 201.251 24.8526C201.556 24.5448 201.933 24.3906 202.381 24.3906ZM201.082 29.376H203.68V41.8257H201.082V29.376ZM209.716 35.4546L205.361 29.376H208.393L211.352 33.5826L214.358 29.376H217.197L212.819 35.4546L217.462 41.8257H214.431L211.183 37.3026L207.911 41.8257H205.097L209.716 35.4546Z" fill="#F54C3B"/>
<path d="M34.1121 29.6535C34.9913 28.7934 36.2081 28.1749 37.7202 27.8193L40.6529 27.08C40.9411 27.009 41.1451 26.746 41.1451 26.4474L41.3423 -48.582H49.8524L49.6552 19.9568C49.6552 24.0516 46.5887 27.414 42.6644 27.8905C42.3899 27.926 42.1507 28.1178 42.0945 28.3881C41.7852 29.8384 41.6163 31.3597 41.6163 32.945C41.6163 34.4308 41.7852 35.8739 42.0945 37.3242C42.1507 37.6017 42.3899 37.7932 42.6644 37.829C46.5955 38.3052 49.6552 41.6679 49.6552 45.7624L49.7726 85.486H41.2625L41.1451 39.3076C41.1451 39.0021 40.934 38.7318 40.6317 38.6681L37.741 38.0424C36.2149 37.7081 34.9981 37.1107 34.1189 36.265C33.1978 35.3766 32.7266 34.26 32.7266 32.945C32.7195 31.6582 33.1906 30.5491 34.1121 29.6535Z" fill="#F54C3B"/>
<path d="M18.8996 29.7077C18.0204 28.8475 16.8037 28.2291 15.2915 27.8735L12.3589 27.1342C12.0706 27.0632 11.8666 26.8004 11.8666 26.5019L11.6914 -29.5859H3.1813L3.35653 20.0112C3.35653 24.106 6.42303 27.4682 10.3473 27.9447C10.6218 27.9802 10.861 28.172 10.9172 28.4423C11.2265 29.8926 11.3955 31.4139 11.3955 32.9992C11.3955 34.485 11.2265 35.9281 10.9172 37.3784C10.861 37.6559 10.6218 37.8474 10.3473 37.8832C6.41618 38.3594 3.35653 41.7224 3.35653 45.8169L3.243 85.3423H11.7531L11.8666 39.3617C11.8666 39.0563 12.0778 38.786 12.38 38.7222L15.2707 38.0966C16.7968 37.7623 18.0136 37.1649 18.8928 36.3192C19.8139 35.4308 20.2851 34.3142 20.2851 32.9992C20.2922 31.7124 19.8211 30.6033 18.8996 29.7077Z" fill="#F54C3B"/>
</g>
<defs>
<clipPath id="clip0_1803_102449">
<rect width="222" height="66" fill="white"/>
</clipPath>
</defs>
</svg>
