<svg width="32" height="32" viewBox="0 0 32 32" fill="none" xmlns="http://www.w3.org/2000/svg">
<path d="M20.2727 8.22723L23.3182 8.04541C23.5909 8.04541 23.7727 8.22723 23.8182 8.4545L24 11.1818C24 11.4545 23.8182 11.6363 23.5909 11.6818L8.68182 13.0454C8.40909 13.0454 8.22727 12.8636 8.18182 12.6363L8 9.4545C8 9.18177 8.18182 8.99996 8.40909 8.9545L14.3125 8.4545" stroke="#414753" strokeWidth="2.5" strokeLinecap="round" strokeLinejoin="round"/>
<path d="M9.54687 15.4546L9.04688 13.1819" stroke="#414753" strokeWidth="2.5" strokeLinecap="round" strokeLinejoin="round"/>
<path d="M22.0924 16.2273L23.0015 22.5909C23.0015 23.3637 22.4106 23.9546 21.6378 23.9546H10.2742C10.2288 23.9546 10.1378 23.9546 10.0924 23.9546C9.22875 23.8182 8.77421 22.9091 9.13784 22.1364L10.6117 19.481" stroke="#414753" strokeWidth="2.5" strokeLinecap="round" strokeLinejoin="round"/>
<path d="M23.1832 11.7727L22.0469 16.0909" stroke="#414753" strokeWidth="2.5" strokeLinecap="round" strokeLinejoin="round"/>
<path d="M13.9609 16.6818L18.0518 16.2273" stroke="#414753" strokeWidth="2.5" strokeLinecap="round" strokeLinejoin="round"/>
</svg>
